<?xml version="1.0" encoding="UTF-8" standalone="no"?>
<svg
   xmlns:dc="http://purl.org/dc/elements/1.1/"
   xmlns:cc="http://creativecommons.org/ns#"
   xmlns:rdf="http://www.w3.org/1999/02/22-rdf-syntax-ns#"
   xmlns:svg="http://www.w3.org/2000/svg"
   xmlns="http://www.w3.org/2000/svg"
   xmlns:sodipodi="http://sodipodi.sourceforge.net/DTD/sodipodi-0.dtd"
   xmlns:inkscape="http://www.inkscape.org/namespaces/inkscape"
   viewBox="0 0 494.25063 146.41466"
   height="146.41466"
   width="494.25064"
   xml:space="preserve"
   id="svg2"
   version="1.1"
   inkscape:version="0.91 r13725"
   sodipodi:docname="Haka_login_vaaka.svg"><sodipodi:namedview
     pagecolor="#ffffff"
     bordercolor="#666666"
     borderopacity="1"
     objecttolerance="10"
     gridtolerance="10"
     guidetolerance="10"
     inkscape:pageopacity="0"
     inkscape:pageshadow="2"
     inkscape:window-width="1920"
     inkscape:window-height="1099"
     id="namedview23"
     showgrid="false"
     fit-margin-top="0"
     fit-margin-left="0"
     fit-margin-right="0"
     fit-margin-bottom="0"
     inkscape:zoom="0.78111071"
     inkscape:cx="425.98752"
     inkscape:cy="39.229541"
     inkscape:window-x="0"
     inkscape:window-y="28"
     inkscape:window-maximized="1"
     inkscape:current-layer="svg2" /><metadata
     id="metadata8"><rdf:RDF><cc:Work
         rdf:about=""><dc:format>image/svg+xml</dc:format><dc:type
           rdf:resource="http://purl.org/dc/dcmitype/StillImage" /><dc:title></dc:title></cc:Work></rdf:RDF></metadata><defs
     id="defs6"><clipPath
       id="clipPath24"
       clipPathUnits="userSpaceOnUse"><path
         id="path22"
         d="m 0,595.28 841.89,0 L 841.89,0 0,0 Z"
         inkscape:connector-curvature="0" /></clipPath></defs><g
     transform="matrix(1.3333333,0,0,-1.3333333,-314.13466,470.06132)"
     id="g10"><path
       id="path12"
       style="fill:#ffffff;fill-opacity:1;fill-rule:nonzero;stroke:none"
       d="m 236.101,352.046 369.687,0 0,-108.812 -369.687,0 z"
       inkscape:connector-curvature="0" /><path
       id="path14"
       style="fill:#979797;fill-opacity:1;fill-rule:nonzero;stroke:none"
       d="m 606.289,352.546 -370.688,0 0,-109.811 370.688,0 z m -1,-108.812 -368.688,0 0,107.811 368.688,0 z"
       inkscape:connector-curvature="0" /><path
       id="path16"
       style="fill:#9a0052;fill-opacity:1;fill-rule:nonzero;stroke:none"
       d="m 429.129,277.089 157.643,0 0,36.85 -157.643,0 z"
       inkscape:connector-curvature="0" /><g
       id="g18"><g
         clip-path="url(#clipPath24)"
         id="g20"><g
           transform="translate(285.3778,280.4447)"
           id="g26"><path
             id="path28"
             style="fill:#9a0052;fill-opacity:1;fill-rule:nonzero;stroke:none"
             d="m 0,0 6.992,0 0,39.104 -6.992,0 0,-16.231 -18.666,0 0,16.231 -6.992,0 0,-39.104 6.992,0 0,17.212 18.666,0 z m 37.27,5.429 0,13.69 c 0,7.508 -3.648,10.685 -12.099,10.685 -3.101,0 -6.506,-0.462 -10.032,-1.386 l 0,-4.736 c 4.073,0.866 6.809,1.097 8.755,1.097 4.803,0 6.688,-1.675 6.688,-5.603 l 0,-1.617 -6.384,0 c -7.965,0 -12.282,-3.235 -12.282,-9.53 0,-5.545 3.587,-8.722 9.85,-8.722 4.256,0 7.417,1.444 9.424,3.639 l 0.061,0 c 0.668,-2.657 2.553,-3.639 5.168,-3.639 1.58,0 2.857,0.346 4.073,0.751 l 0,3.812 C 40.067,3.812 39.58,3.754 39.215,3.754 c -1.216,0 -1.945,0.52 -1.945,1.675 M 18.604,8.606 c 0,3.466 2.311,5.083 6.992,5.083 l 4.986,0 0,-7.278 C 28.636,4.794 26.387,4.159 23.955,4.159 c -3.709,0 -5.351,1.617 -5.351,4.447 M 72.716,0 59.948,17.675 l 11.127,11.552 -7.418,0 -11.248,-11.841 0,24.606 -6.688,0 0,-41.992 6.688,0 0,10.397 3.222,3.119 L 65.238,0 Z m 27.482,5.429 0,13.69 c 0,7.508 -3.648,10.685 -12.1,10.685 -3.1,0 -6.505,-0.462 -10.032,-1.386 l 0,-4.736 c 4.074,0.866 6.81,1.097 8.756,1.097 4.803,0 6.688,-1.675 6.688,-5.603 l 0,-1.617 -6.384,0 c -7.965,0 -12.282,-3.235 -12.282,-9.53 0,-5.545 3.587,-8.722 9.85,-8.722 4.256,0 7.417,1.444 9.424,3.639 l 0.06,0 c 0.669,-2.657 2.554,-3.639 5.168,-3.639 1.581,0 2.858,0.346 4.074,0.751 l 0,3.812 c -0.426,-0.058 -0.912,-0.116 -1.277,-0.116 -1.216,0 -1.945,0.52 -1.945,1.675 M 81.532,8.606 c 0,3.466 2.31,5.083 6.992,5.083 l 4.986,0 0,-7.278 C 91.564,4.794 89.314,4.159 86.882,4.159 c -3.708,0 -5.35,1.617 -5.35,4.447"
             inkscape:connector-curvature="0" /></g><g
           transform="translate(362.757,274.6599)"
           id="g30"><path
             id="path32"
             style="fill:#00c8b3;fill-opacity:1;fill-rule:nonzero;stroke:none"
             d="m 0,0 -7.863,0 c 6.444,-7.953 16.286,-13.042 27.32,-13.042 19.413,0 35.15,15.738 35.15,35.15 0,6.521 -1.783,12.623 -4.877,17.858 -1.042,-1.683 -2.501,-3.079 -4.246,-4.024 2.198,-4.126 3.453,-8.832 3.453,-13.834 0,-16.281 -13.199,-29.48 -29.48,-29.48 C 11.991,-7.372 5.194,-4.575 0,0"
             inkscape:connector-curvature="0" /></g><g
           transform="translate(395.5831,329.2786)"
           id="g34"><path
             id="path36"
             style="fill:#00c8b3;fill-opacity:1;fill-rule:nonzero;stroke:none"
             d="m 0,0 c -4.122,1.697 -8.635,2.639 -13.369,2.639 -12.534,0 -23.527,-6.565 -29.75,-16.439 l 6.97,0 c 5.407,6.575 13.603,10.77 22.78,10.77 3.515,0 6.872,-0.648 9.998,-1.776 C -2.68,-2.92 -1.512,-1.265 0,0"
             inkscape:connector-curvature="0" /></g><g
           transform="translate(402.8502,308.9137)"
           id="g38"><path
             id="path40"
             style="fill:#4cc330;fill-opacity:1;fill-rule:nonzero;stroke:none"
             d="M 0,0 C 6.443,0 11.665,5.223 11.665,11.665 11.665,18.108 6.443,23.33 0,23.33 -6.443,23.33 -11.665,18.108 -11.665,11.665 -11.665,5.223 -6.443,0 0,0"
             inkscape:connector-curvature="0" /></g><g
           transform="translate(482.9252,288.5604)"
           id="g42"><path
             id="path44"
             style="fill:#ffffff;fill-opacity:1;fill-rule:nonzero;stroke:none"
             d="m 0,0 9.086,0 0,2.178 -6.556,0 0,12.716 -2.53,0 z m 20.988,5.456 c 0,3.564 -2.2,5.896 -5.566,5.896 -3.3,0 -5.566,-2.354 -5.566,-5.808 0,-3.476 2.222,-5.852 5.456,-5.852 3.3,0 5.676,2.376 5.676,5.764 M 18.48,5.478 c 0,-2.332 -1.232,-3.872 -3.036,-3.872 -1.87,0 -3.08,1.518 -3.08,3.96 0,2.376 1.232,3.872 3.08,3.872 1.826,0 3.036,-1.54 3.036,-3.96 m 11.77,-3.982 0,-1.76 c 0,-1.738 -0.968,-2.508 -3.168,-2.508 -1.1,0 -2.178,0.264 -3.586,0.858 l 0,-1.958 c 1.254,-0.506 2.574,-0.748 3.982,-0.748 3.476,0 5.126,1.518 5.126,4.752 l 0,11 -2.2,0 0,-1.232 -0.022,0 c -0.814,0.902 -2.024,1.452 -3.234,1.452 -2.882,0 -4.752,-2.244 -4.752,-5.72 0,-3.542 1.672,-5.632 4.51,-5.632 1.254,0 2.42,0.55 3.3,1.496 z m -5.346,4.158 c 0,2.376 1.078,3.828 2.816,3.828 0.946,0 1.716,-0.33 2.464,-1.056 l 0,-5.412 C 29.37,2.288 28.512,1.892 27.676,1.892 c -1.76,0 -2.772,1.342 -2.772,3.762 m 12.892,9.922 -2.42,0 0,-2.53 2.42,0 z M 35.376,0 l 2.42,0 0,11.132 -2.42,0 z m 12.495,0 2.42,0 0,7.194 c 0,2.75 -1.253,4.158 -3.586,4.158 -1.584,0 -2.882,-0.638 -3.872,-1.606 l -0.044,0 0,1.386 -2.222,0 0,-11.132 2.42,0 0,8.426 c 0.726,0.638 1.65,0.99 2.618,0.99 1.474,0 2.266,-0.814 2.266,-2.288 z"
             inkscape:connector-curvature="0" /></g></g></g></g></svg>